<?xml version="1.0" encoding="utf-8"?>
<!-- Generator: Adobe Illustrator 24.1.1, SVG Export Plug-In . SVG Version: 6.00 Build 0)  -->
<svg version="1.1" id="Layer_1" xmlns="http://www.w3.org/2000/svg" xmlns:xlink="http://www.w3.org/1999/xlink" x="0px" y="0px"
	 viewBox="0 0 256 256" enable-background="new 0 0 256 256" xml:space="preserve">
<g>
	<g>
		<defs>
			<path id="SVGID_59_" d="M108.64,62.1c-1.35-2.45-6.12-9.21-17.95-9.21c-3.19,0-5.78-2.59-5.78-5.78c0-3.19,2.59-5.78,5.78-5.78
				c7.73,0,13.59,2.09,17.95,4.81V19.93c-10.32,1.42-20.18,4.29-29.37,8.38c-0.33,0.26-0.7,0.49-1.11,0.68
				c-4.78,2.25-8.8,5.78-11.59,10.13c-2.68,4.18-4.22,9.13-4.21,14.45c0.02,7.47,3.11,14.32,8.09,19.3
				c4.93,4.93,11.73,8.01,19.24,8.01c3.19,0,5.78,2.59,5.78,5.78c0,3.19-2.59,5.78-5.78,5.78c-10.71,0-20.39-4.37-27.41-11.4
				c-0.98-0.98-1.9-2.01-2.77-3.08c-5.33,1.86-15.38,6.33-21.25,14.93c-1.8,2.63-5.39,3.31-8.02,1.51c-2.63-1.8-3.31-5.39-1.51-8.02
				C35.6,76.32,46.56,70.67,53.61,67.9c-1.77-4.44-2.75-9.28-2.77-14.33c-0.01-2.55,0.23-5.04,0.7-7.44
				c-2.83,2.5-5.54,5.14-8.1,7.92C25.52,73.48,14.56,99.45,14.56,128c0,28.55,10.96,54.53,28.88,73.97
				c0.39,0.42,0.78,0.83,1.17,1.24c-0.66-6.97,0.61-13.87,3.48-20.02c0.7-1.51,1.51-2.98,2.4-4.39
				c-4.17-4.82-10.59-13.95-12.48-26.09c-0.48-3.14,1.67-6.08,4.81-6.57c3.14-0.49,6.09,1.67,6.58,4.81
				c1.34,8.59,5.57,15.19,8.72,19.08c3.43-2.92,7.44-5.29,11.93-6.93c2.99-1.08,6.3,0.46,7.38,3.45c1.08,2.99-0.47,6.3-3.46,7.38
				c-7.07,2.57-12.44,7.79-15.4,14.13c-2.96,6.35-3.5,13.82-0.92,20.9c0.84,2.3,1.96,4.43,3.31,6.36c1.31,1.88,2.82,3.54,4.47,4.96
				c12.84,8.12,27.49,13.63,43.22,15.79v-19.66c-6.9-0.06-13.4-1.54-19.15-4.38c-7.38-3.65-13.45-9.52-17.45-17.53
				c-1.43-2.84-0.27-6.3,2.57-7.72c2.84-1.43,6.3-0.27,7.72,2.57c2.82,5.64,7.09,9.77,12.27,12.34c4.14,2.05,8.91,3.12,14.04,3.18
				V154.8c-13.37-11.91-25.08-5.12-25.11-5.1c-2.77,1.56-6.28,0.58-7.84-2.19c-1.56-2.77-0.58-6.28,2.19-7.84
				c0.05-0.03,14.23-8.23,30.76,1v-27.21c-12.73-1.81-19.29,3.85-26.21,9.84c-0.59,0.51-1.18,1.02-1.78,1.54
				c-0.48,0.61-1.08,1.13-1.78,1.51c-11.25,9.36-24.94,17.5-57.24,7.14c-3.03-0.97-4.7-4.22-3.73-7.25c0.97-3.03,4.22-4.7,7.25-3.73
				c23.92,7.68,35.32,3.25,43.94-3.16c-2.06-4.03-6.65-10.66-15.92-15.06c-2.88-1.36-4.11-4.8-2.75-7.68
				c1.36-2.88,4.8-4.11,7.68-2.75c10.5,4.98,16.61,12.4,19.96,18.01c7.78-6.52,16-11.9,30.58-10.09V62.1z M113.67,248.25
				c-31.05-2.55-58.78-16.86-78.71-38.47C15.12,188.27,3,159.55,3,128c0-31.55,12.12-60.27,31.96-81.78
				c20-21.68,47.84-36.01,79.01-38.49c3.18-0.25,5.96,2.13,6.21,5.31c0.01,0.15,0.02,0.3,0.02,0.45h0v229.02
				c0,3.19-2.59,5.78-5.78,5.78C114.17,248.3,113.92,248.28,113.67,248.25z"/>
		</defs>
		<clipPath id="SVGID_62_">
			<use xlink:href="#SVGID_59_"  overflow="visible"/>
		</clipPath>
		<linearGradient id="SVGID_63_" gradientUnits="userSpaceOnUse" x1="61.5998" y1="278.3345" x2="61.5998" y2="-20.7667">
			<stop  offset="0" style="stop-color:#6200EA"/>
			<stop  offset="1" style="stop-color:#E040FB"/>
		</linearGradient>
		<rect x="3" y="7.48" clip-path="url(#SVGID_62_)" fill="url(#SVGID_63_)" width="117.2" height="240.81"/>
	</g>
	<g>
		<defs>
			<path id="SVGID_57_" d="M212.49,53.95c-16.77-18.15-39.65-30.58-65.37-34.06v216.23c25.73-3.47,48.6-15.91,65.37-34.06
				c17.97-19.43,28.95-45.45,28.95-74.06C241.44,99.4,230.46,73.38,212.49,53.95 M142.11,7.74c31.09,2.5,58.85,16.79,78.83,38.39
				C240.84,67.66,253,96.42,253,128c0,31.58-12.16,60.34-32.06,81.87c-20.05,21.68-47.95,36-79.17,38.42
				c-3.18,0.24-5.95-2.15-6.19-5.33c-0.01-0.15-0.02-0.29-0.02-0.43h0V13.47c0-3.19,2.59-5.78,5.78-5.78
				C141.6,7.69,141.86,7.71,142.11,7.74z"/>
		</defs>
		<clipPath id="SVGID_66_">
			<use xlink:href="#SVGID_57_"  overflow="visible"/>
		</clipPath>
		<linearGradient id="SVGID_67_" gradientUnits="userSpaceOnUse" x1="194.2792" y1="278.3345" x2="194.2792" y2="-20.7673">
			<stop  offset="0" style="stop-color:#6200EA"/>
			<stop  offset="1" style="stop-color:#E040FB"/>
		</linearGradient>
		<rect x="135.56" y="7.69" clip-path="url(#SVGID_66_)" fill="url(#SVGID_67_)" width="117.44" height="240.84"/>
	</g>
	<g>
		<defs>
			<path id="SVGID_56_" d="M140.73,52.32c-3.17-0.33-5.46-3.18-5.13-6.34c0.33-3.17,3.18-5.46,6.34-5.13
				c22.07,2.41,41.68,13.01,55.72,28.69c13.91,15.53,22.36,36.02,22.36,58.46c0,22.45-8.46,42.93-22.36,58.46
				c-14.04,15.69-33.65,26.29-55.72,28.7c-3.17,0.33-6.01-1.96-6.34-5.13c-0.34-3.17,1.96-6.01,5.13-6.35
				c19.15-2.09,36.17-11.29,48.36-24.9c12.05-13.45,19.38-31.25,19.38-50.78c0-19.53-7.33-37.32-19.38-50.78
				C176.9,63.61,159.88,54.41,140.73,52.32"/>
		</defs>
		<clipPath id="SVGID_69_">
			<use xlink:href="#SVGID_56_"  overflow="visible"/>
		</clipPath>
		<linearGradient id="SVGID_70_" gradientUnits="userSpaceOnUse" x1="177.6494" y1="278.3347" x2="177.6494" y2="-20.7669">
			<stop  offset="0" style="stop-color:#6200EA"/>
			<stop  offset="1" style="stop-color:#E040FB"/>
		</linearGradient>
		<rect x="135.27" y="40.51" clip-path="url(#SVGID_69_)" fill="url(#SVGID_70_)" width="84.77" height="174.98"/>
	</g>
	<g>
		<defs>
			<path id="SVGID_54_" d="M140.3,85.56c-3.13-0.57-5.2-3.58-4.63-6.71c0.57-3.13,3.58-5.2,6.71-4.63
				c12.82,2.38,24.07,9.23,32.07,18.86c7.88,9.5,12.62,21.67,12.62,34.92c0,13.25-4.74,25.43-12.62,34.92
				c-8,9.63-19.25,16.48-32.07,18.86c-3.13,0.57-6.14-1.5-6.71-4.63c-0.57-3.13,1.5-6.13,4.63-6.7
				c10.11-1.88,18.98-7.28,25.29-14.89c6.19-7.45,9.91-17.06,9.91-27.56c0-10.5-3.72-20.1-9.91-27.56
				C159.28,92.84,150.4,87.43,140.3,85.56"/>
		</defs>
		<clipPath id="SVGID_72_">
			<use xlink:href="#SVGID_54_"  overflow="visible"/>
		</clipPath>
		<linearGradient id="SVGID_73_" gradientUnits="userSpaceOnUse" x1="161.0792" y1="278.3345" x2="161.0792" y2="-20.7662">
			<stop  offset="0" style="stop-color:#6200EA"/>
			<stop  offset="1" style="stop-color:#E040FB"/>
		</linearGradient>
		<rect x="135.1" y="73.64" clip-path="url(#SVGID_72_)" fill="url(#SVGID_73_)" width="51.97" height="108.72"/>
	</g>
	<g>
		<defs>
			<path id="SVGID_53_" d="M207.7,82.86c7.17,0,12.98,5.81,12.98,12.99c0,7.17-5.81,12.98-12.98,12.98
				c-7.17,0-12.98-5.81-12.98-12.98C194.72,88.68,200.53,82.86,207.7,82.86"/>
		</defs>
		<clipPath id="SVGID_75_">
			<use xlink:href="#SVGID_53_"  overflow="visible"/>
		</clipPath>
		<linearGradient id="SVGID_76_" gradientUnits="userSpaceOnUse" x1="207.6981" y1="278.335" x2="207.6981" y2="-20.7664">
			<stop  offset="0" style="stop-color:#6200EA"/>
			<stop  offset="1" style="stop-color:#E040FB"/>
		</linearGradient>
		<rect x="194.72" y="82.86" clip-path="url(#SVGID_75_)" fill="url(#SVGID_76_)" width="25.96" height="25.97"/>
	</g>
	<g>
		<defs>
			<path id="SVGID_51_" d="M170,146.29c7.17,0,12.98,5.81,12.98,12.98c0,7.17-5.81,12.99-12.98,12.99
				c-7.17,0-12.99-5.81-12.99-12.99C157.01,152.1,162.82,146.29,170,146.29"/>
		</defs>
		<clipPath id="SVGID_78_">
			<use xlink:href="#SVGID_51_"  overflow="visible"/>
		</clipPath>
		<linearGradient id="SVGID_79_" gradientUnits="userSpaceOnUse" x1="169.9946" y1="278.3345" x2="169.9946" y2="-20.7658">
			<stop  offset="0" style="stop-color:#6200EA"/>
			<stop  offset="1" style="stop-color:#E040FB"/>
		</linearGradient>
		<rect x="157.01" y="146.29" clip-path="url(#SVGID_78_)" fill="url(#SVGID_79_)" width="25.97" height="25.97"/>
	</g>
	<g>
		<defs>
			<path id="SVGID_50_" d="M212.02,197.77c7.17,0,12.98,5.81,12.98,12.99c0,7.17-5.81,12.98-12.98,12.98
				c-7.17,0-12.99-5.81-12.99-12.98C199.04,203.59,204.85,197.77,212.02,197.77"/>
		</defs>
		<clipPath id="SVGID_81_">
			<use xlink:href="#SVGID_50_"  overflow="visible"/>
		</clipPath>
		<linearGradient id="SVGID_82_" gradientUnits="userSpaceOnUse" x1="212.0206" y1="278.3345" x2="212.0206" y2="-20.7657">
			<stop  offset="0" style="stop-color:#6200EA"/>
			<stop  offset="1" style="stop-color:#E040FB"/>
		</linearGradient>
		<rect x="199.04" y="197.77" clip-path="url(#SVGID_81_)" fill="url(#SVGID_82_)" width="25.97" height="25.97"/>
	</g>
	<g>
		<defs>
			<path id="SVGID_48_" d="M174.79,8.24c7.17,0,12.98,5.81,12.98,12.98c0,7.17-5.81,12.98-12.98,12.98
				c-7.17,0-12.99-5.81-12.99-12.98C161.81,14.05,167.62,8.24,174.79,8.24"/>
		</defs>
		<clipPath id="SVGID_84_">
			<use xlink:href="#SVGID_48_"  overflow="visible"/>
		</clipPath>
		<linearGradient id="SVGID_85_" gradientUnits="userSpaceOnUse" x1="174.7919" y1="278.335" x2="174.7919" y2="-20.7651">
			<stop  offset="0" style="stop-color:#6200EA"/>
			<stop  offset="1" style="stop-color:#E040FB"/>
		</linearGradient>
		<rect x="161.81" y="8.24" clip-path="url(#SVGID_84_)" fill="url(#SVGID_85_)" width="25.97" height="25.96"/>
	</g>
	<g>
		<defs>
			<path id="SVGID_47_" d="M141.34,66.9c7.17,0,12.99,5.81,12.99,12.99c0,7.17-5.81,12.98-12.99,12.98
				c-7.17,0-12.98-5.81-12.98-12.98C128.35,72.72,134.17,66.9,141.34,66.9"/>
		</defs>
		<clipPath id="SVGID_87_">
			<use xlink:href="#SVGID_47_"  overflow="visible"/>
		</clipPath>
		<linearGradient id="SVGID_88_" gradientUnits="userSpaceOnUse" x1="141.3373" y1="278.3345" x2="141.3373" y2="-20.7657">
			<stop  offset="0" style="stop-color:#6200EA"/>
			<stop  offset="1" style="stop-color:#E040FB"/>
		</linearGradient>
		<rect x="128.35" y="66.9" clip-path="url(#SVGID_87_)" fill="url(#SVGID_88_)" width="25.97" height="25.97"/>
	</g>
	<g>
		<defs>
			<path id="SVGID_45_" d="M141.34,195.32c7.17,0,12.99,5.81,12.99,12.98c0,7.17-5.81,12.99-12.99,12.99
				c-7.17,0-12.98-5.81-12.98-12.99C128.35,201.13,134.17,195.32,141.34,195.32"/>
		</defs>
		<clipPath id="SVGID_90_">
			<use xlink:href="#SVGID_45_"  overflow="visible"/>
		</clipPath>
		<linearGradient id="SVGID_91_" gradientUnits="userSpaceOnUse" x1="141.3373" y1="278.3346" x2="141.3373" y2="-20.7657">
			<stop  offset="0" style="stop-color:#6200EA"/>
			<stop  offset="1" style="stop-color:#E040FB"/>
		</linearGradient>
		<rect x="128.35" y="195.32" clip-path="url(#SVGID_90_)" fill="url(#SVGID_91_)" width="25.97" height="25.97"/>
	</g>
</g>
</svg>
